<svg viewBox="0 0 900 880" xmlns="http://www.w3.org/2000/svg" aria-label="Antiikkinen kompassi suomenkielisillä ilmansuunnilla" role="img">
  <defs>
    <radialGradient id="brassOuter" cx="35%" cy="30%" r="80%">
      <stop offset="0%" stop-color="#b88a46" />
      <stop offset="35%" stop-color="#9f7230" />
      <stop offset="72%" stop-color="#7b5421" />
      <stop offset="100%" stop-color="#5b3c15" />
    </radialGradient>

    <radialGradient id="paperFill" cx="45%" cy="40%" r="70%">
      <stop offset="0%" stop-color="#f4ecd2" />
      <stop offset="70%" stop-color="#e9dfbf" />
      <stop offset="100%" stop-color="#d2c4a0" />
    </radialGradient>

    <radialGradient id="hubGrad" cx="38%" cy="35%" r="70%">
      <stop offset="0%" stop-color="#e8cc8a" />
      <stop offset="55%" stop-color="#b88734" />
      <stop offset="100%" stop-color="#7b5319" />
    </radialGradient>

    <linearGradient id="northGrad" x1="0" y1="0" x2="0" y2="1">
      <stop offset="0%" stop-color="#f4d78e" />
      <stop offset="100%" stop-color="#e0b355" />
    </linearGradient>

    <linearGradient id="southGrad" x1="0" y1="0" x2="0" y2="1">
      <stop offset="0%" stop-color="#5d77aa" />
      <stop offset="100%" stop-color="#36558f" />
    </linearGradient>

    <filter id="shadow" x="-20%" y="-20%" width="140%" height="140%">
      <feDropShadow dx="0" dy="14" stdDeviation="14" flood-color="#000000" flood-opacity="0.14" />
    </filter>

    <path id="arcNE" d="M 473.6161521627025 366.0661455903397 A 136 136 0 0 1 583.9338544096603 476.3838478372975" />
    <path id="arcSE" d="M 473.6161521627025 633.9338544096603 A 136 136 0 0 0 583.9338544096603 523.6161521627025" />
    <path id="arcSW" d="M 316.0661455903397 523.6161521627025 A 136 136 0 0 0 426.3838478372975 633.9338544096603" />
    <path id="arcNW" d="M 316.0661455903397 476.3838478372975 A 136 136 0 0 1 426.3838478372975 366.0661455903397" />
  </defs>

  <g filter="url(#shadow)">
    <path d="M 682 270 C 698 246, 715 223, 732 200" fill="none" stroke="url(#brassOuter)" stroke-width="22" stroke-linecap="round" />
    <path d="M 684 271 C 699 249, 715 228, 729 208" fill="none" stroke="#5b3c15" stroke-width="5" stroke-linecap="round" opacity="0.28" />
    <circle cx="682" cy="270" r="10" fill="url(#brassOuter)" />

    <g transform="translate(716 115) rotate(8 80 32)">
      <circle cx="80" cy="32" r="48" fill="none" stroke="url(#brassOuter)" stroke-width="16" />
      <circle cx="80" cy="32" r="34" fill="none" stroke="#b6a992" stroke-width="2" opacity="0.75" />
      <path d="M18 118 C32 100, 46 86, 60 76" fill="none" stroke="url(#brassOuter)" stroke-width="18" stroke-linecap="round" />
      <path d="M20 116 C34 100, 46 89, 57 82" fill="none" stroke="#5b3c15" stroke-width="4" stroke-linecap="round" opacity="0.28" />
      <circle cx="58" cy="80" r="8" fill="url(#brassOuter)" />
    </g>

    <circle cx="450" cy="500" r="322" fill="url(#brassOuter)" />
    <circle cx="450" cy="500" r="309" fill="none" stroke="#5b3c15" stroke-width="4" />
    <circle cx="450" cy="500" r="295" fill="#856027" />
    <circle cx="450" cy="500" r="279" fill="url(#paperFill)" />
    <circle cx="450" cy="500" r="269" fill="none" stroke="#8b6c35" stroke-width="2" />

    <circle cx="450" cy="500" r="252" fill="none" stroke="#7b6b4e" stroke-width="1.4" />
    <circle cx="450" cy="500" r="238" fill="none" stroke="#7b6b4e" stroke-width="1.1" />
    <circle cx="450" cy="500" r="206" fill="none" stroke="#7b6b4e" stroke-width="1.3" />
    <circle cx="450" cy="500" r="192" fill="none" stroke="#3b2b18" stroke-width="3" />

    <line x1="450.00" y1="273.00" x2="450.00" y2="249.00" stroke="#3b2b18" stroke-width="2.3" opacity="0.95" />
<line x1="454.28" y1="255.04" x2="454.38" y2="249.04" stroke="#3b2b18" stroke-width="0.8" opacity="0.78" />
<line x1="458.55" y1="255.15" x2="458.76" y2="249.15" stroke="#3b2b18" stroke-width="0.8" opacity="0.78" />
<line x1="462.82" y1="255.34" x2="463.14" y2="249.34" stroke="#3b2b18" stroke-width="0.8" opacity="0.78" />
<line x1="467.09" y1="255.60" x2="467.51" y2="249.61" stroke="#3b2b18" stroke-width="0.8" opacity="0.78" />
<line x1="470.92" y1="260.91" x2="471.88" y2="249.96" stroke="#3b2b18" stroke-width="1.2" opacity="0.78" />
<line x1="475.61" y1="256.34" x2="476.24" y2="250.38" stroke="#3b2b18" stroke-width="0.8" opacity="0.78" />
<line x1="479.86" y1="256.83" x2="480.59" y2="250.87" stroke="#3b2b18" stroke-width="0.8" opacity="0.78" />
<line x1="484.10" y1="257.38" x2="484.93" y2="251.44" stroke="#3b2b18" stroke-width="0.8" opacity="0.78" />
<line x1="488.33" y1="258.02" x2="489.27" y2="252.09" stroke="#3b2b18" stroke-width="0.8" opacity="0.78" />
<line x1="490.63" y1="269.55" x2="493.59" y2="252.81" stroke="#3b2b18" stroke-width="1.7" opacity="0.95" />
<line x1="496.75" y1="259.50" x2="497.89" y2="253.61" stroke="#3b2b18" stroke-width="0.8" opacity="0.78" />
<line x1="500.94" y1="260.35" x2="502.19" y2="254.48" stroke="#3b2b18" stroke-width="0.8" opacity="0.78" />
<line x1="505.11" y1="261.28" x2="506.46" y2="255.43" stroke="#3b2b18" stroke-width="0.8" opacity="0.78" />
<line x1="509.27" y1="262.28" x2="510.72" y2="256.46" stroke="#3b2b18" stroke-width="0.8" opacity="0.78" />
<line x1="512.12" y1="268.18" x2="514.96" y2="257.55" stroke="#3b2b18" stroke-width="1.2" opacity="0.78" />
<line x1="517.53" y1="264.49" x2="519.18" y2="258.72" stroke="#3b2b18" stroke-width="0.8" opacity="0.78" />
<line x1="521.63" y1="265.71" x2="523.39" y2="259.97" stroke="#3b2b18" stroke-width="0.8" opacity="0.78" />
<line x1="525.71" y1="266.99" x2="527.56" y2="261.28" stroke="#3b2b18" stroke-width="0.8" opacity="0.78" />
<line x1="529.76" y1="268.35" x2="531.72" y2="262.67" stroke="#3b2b18" stroke-width="0.8" opacity="0.78" />
<line x1="527.64" y1="286.69" x2="535.85" y2="264.14" stroke="#3b2b18" stroke-width="2.3" opacity="0.95" />
<line x1="537.80" y1="271.27" x2="539.95" y2="265.67" stroke="#3b2b18" stroke-width="0.8" opacity="0.78" />
<line x1="541.78" y1="272.84" x2="544.03" y2="267.28" stroke="#3b2b18" stroke-width="0.8" opacity="0.78" />
<line x1="545.73" y1="274.48" x2="548.07" y2="268.95" stroke="#3b2b18" stroke-width="0.8" opacity="0.78" />
<line x1="549.65" y1="276.18" x2="552.09" y2="270.70" stroke="#3b2b18" stroke-width="0.8" opacity="0.78" />
<line x1="551.43" y1="282.49" x2="556.08" y2="272.52" stroke="#3b2b18" stroke-width="1.2" opacity="0.78" />
<line x1="557.40" y1="279.80" x2="560.03" y2="274.40" stroke="#3b2b18" stroke-width="0.8" opacity="0.78" />
<line x1="561.23" y1="281.70" x2="563.95" y2="276.36" stroke="#3b2b18" stroke-width="0.8" opacity="0.78" />
<line x1="565.02" y1="283.68" x2="567.84" y2="278.38" stroke="#3b2b18" stroke-width="0.8" opacity="0.78" />
<line x1="568.78" y1="285.72" x2="571.69" y2="280.47" stroke="#3b2b18" stroke-width="0.8" opacity="0.78" />
<line x1="567.00" y1="297.35" x2="575.50" y2="282.63" stroke="#3b2b18" stroke-width="1.7" opacity="0.95" />
<line x1="576.18" y1="289.99" x2="579.27" y2="284.85" stroke="#3b2b18" stroke-width="0.8" opacity="0.78" />
<line x1="579.83" y1="292.23" x2="583.01" y2="287.14" stroke="#3b2b18" stroke-width="0.8" opacity="0.78" />
<line x1="583.44" y1="294.53" x2="586.70" y2="289.49" stroke="#3b2b18" stroke-width="0.8" opacity="0.78" />
<line x1="587.00" y1="296.89" x2="590.36" y2="291.91" stroke="#3b2b18" stroke-width="0.8" opacity="0.78" />
<line x1="587.66" y1="303.40" x2="593.97" y2="294.39" stroke="#3b2b18" stroke-width="1.2" opacity="0.78" />
<line x1="594.01" y1="301.79" x2="597.53" y2="296.94" stroke="#3b2b18" stroke-width="0.8" opacity="0.78" />
<line x1="597.44" y1="304.33" x2="601.06" y2="299.54" stroke="#3b2b18" stroke-width="0.8" opacity="0.78" />
<line x1="600.84" y1="306.94" x2="604.53" y2="302.21" stroke="#3b2b18" stroke-width="0.8" opacity="0.78" />
<line x1="604.18" y1="309.60" x2="607.96" y2="304.94" stroke="#3b2b18" stroke-width="0.8" opacity="0.78" />
<line x1="595.91" y1="326.11" x2="611.34" y2="307.72" stroke="#3b2b18" stroke-width="2.3" opacity="0.95" />
<line x1="610.73" y1="315.10" x2="614.67" y2="310.57" stroke="#3b2b18" stroke-width="0.8" opacity="0.78" />
<line x1="613.94" y1="317.93" x2="617.95" y2="313.47" stroke="#3b2b18" stroke-width="0.8" opacity="0.78" />
<line x1="617.09" y1="320.82" x2="621.18" y2="316.43" stroke="#3b2b18" stroke-width="0.8" opacity="0.78" />
<line x1="620.19" y1="323.76" x2="624.36" y2="319.45" stroke="#3b2b18" stroke-width="0.8" opacity="0.78" />
<line x1="619.71" y1="330.29" x2="627.48" y2="322.52" stroke="#3b2b18" stroke-width="1.2" opacity="0.78" />
<line x1="626.24" y1="329.81" x2="630.55" y2="325.64" stroke="#3b2b18" stroke-width="0.8" opacity="0.78" />
<line x1="629.18" y1="332.91" x2="633.57" y2="328.82" stroke="#3b2b18" stroke-width="0.8" opacity="0.78" />
<line x1="632.07" y1="336.06" x2="636.53" y2="332.05" stroke="#3b2b18" stroke-width="0.8" opacity="0.78" />
<line x1="634.90" y1="339.27" x2="639.43" y2="335.33" stroke="#3b2b18" stroke-width="0.8" opacity="0.78" />
<line x1="629.25" y1="349.59" x2="642.28" y2="338.66" stroke="#3b2b18" stroke-width="1.7" opacity="0.95" />
<line x1="640.40" y1="345.82" x2="645.06" y2="342.04" stroke="#3b2b18" stroke-width="0.8" opacity="0.78" />
<line x1="643.06" y1="349.16" x2="647.79" y2="345.47" stroke="#3b2b18" stroke-width="0.8" opacity="0.78" />
<line x1="645.67" y1="352.56" x2="650.46" y2="348.94" stroke="#3b2b18" stroke-width="0.8" opacity="0.78" />
<line x1="648.21" y1="355.99" x2="653.06" y2="352.47" stroke="#3b2b18" stroke-width="0.8" opacity="0.78" />
<line x1="646.60" y1="362.34" x2="655.61" y2="356.03" stroke="#3b2b18" stroke-width="1.2" opacity="0.78" />
<line x1="653.11" y1="363.00" x2="658.09" y2="359.64" stroke="#3b2b18" stroke-width="0.8" opacity="0.78" />
<line x1="655.47" y1="366.56" x2="660.51" y2="363.30" stroke="#3b2b18" stroke-width="0.8" opacity="0.78" />
<line x1="657.77" y1="370.17" x2="662.86" y2="366.99" stroke="#3b2b18" stroke-width="0.8" opacity="0.78" />
<line x1="660.01" y1="373.82" x2="665.15" y2="370.73" stroke="#3b2b18" stroke-width="0.8" opacity="0.78" />
<line x1="646.59" y1="386.50" x2="667.37" y2="374.50" stroke="#3b2b18" stroke-width="2.3" opacity="0.95" />
<line x1="664.28" y1="381.22" x2="669.53" y2="378.31" stroke="#3b2b18" stroke-width="0.8" opacity="0.78" />
<line x1="666.32" y1="384.98" x2="671.62" y2="382.16" stroke="#3b2b18" stroke-width="0.8" opacity="0.78" />
<line x1="668.30" y1="388.77" x2="673.64" y2="386.05" stroke="#3b2b18" stroke-width="0.8" opacity="0.78" />
<line x1="670.20" y1="392.60" x2="675.60" y2="389.97" stroke="#3b2b18" stroke-width="0.8" opacity="0.78" />
<line x1="667.51" y1="398.57" x2="677.48" y2="393.92" stroke="#3b2b18" stroke-width="1.2" opacity="0.78" />
<line x1="673.82" y1="400.35" x2="679.30" y2="397.91" stroke="#3b2b18" stroke-width="0.8" opacity="0.78" />
<line x1="675.52" y1="404.27" x2="681.05" y2="401.93" stroke="#3b2b18" stroke-width="0.8" opacity="0.78" />
<line x1="677.16" y1="408.22" x2="682.72" y2="405.97" stroke="#3b2b18" stroke-width="0.8" opacity="0.78" />
<line x1="678.73" y1="412.20" x2="684.33" y2="410.05" stroke="#3b2b18" stroke-width="0.8" opacity="0.78" />
<line x1="669.89" y1="419.97" x2="685.86" y2="414.15" stroke="#3b2b18" stroke-width="1.7" opacity="0.95" />
<line x1="681.65" y1="420.24" x2="687.33" y2="418.28" stroke="#3b2b18" stroke-width="0.8" opacity="0.78" />
<line x1="683.01" y1="424.29" x2="688.72" y2="422.44" stroke="#3b2b18" stroke-width="0.8" opacity="0.78" />
<line x1="684.29" y1="428.37" x2="690.03" y2="426.61" stroke="#3b2b18" stroke-width="0.8" opacity="0.78" />
<line x1="685.51" y1="432.47" x2="691.28" y2="430.82" stroke="#3b2b18" stroke-width="0.8" opacity="0.78" />
<line x1="681.82" y1="437.88" x2="692.45" y2="435.04" stroke="#3b2b18" stroke-width="1.2" opacity="0.78" />
<line x1="687.72" y1="440.73" x2="693.54" y2="439.28" stroke="#3b2b18" stroke-width="0.8" opacity="0.78" />
<line x1="688.72" y1="444.89" x2="694.57" y2="443.54" stroke="#3b2b18" stroke-width="0.8" opacity="0.78" />
<line x1="689.65" y1="449.06" x2="695.52" y2="447.81" stroke="#3b2b18" stroke-width="0.8" opacity="0.78" />
<line x1="690.50" y1="453.25" x2="696.39" y2="452.11" stroke="#3b2b18" stroke-width="0.8" opacity="0.78" />
<line x1="673.55" y1="460.58" x2="697.19" y2="456.41" stroke="#3b2b18" stroke-width="2.3" opacity="0.95" />
<line x1="691.98" y1="461.67" x2="697.91" y2="460.73" stroke="#3b2b18" stroke-width="0.8" opacity="0.78" />
<line x1="692.62" y1="465.90" x2="698.56" y2="465.07" stroke="#3b2b18" stroke-width="0.8" opacity="0.78" />
<line x1="693.17" y1="470.14" x2="699.13" y2="469.41" stroke="#3b2b18" stroke-width="0.8" opacity="0.78" />
<line x1="693.66" y1="474.39" x2="699.62" y2="473.76" stroke="#3b2b18" stroke-width="0.8" opacity="0.78" />
<line x1="689.09" y1="479.08" x2="700.04" y2="478.12" stroke="#3b2b18" stroke-width="1.2" opacity="0.78" />
<line x1="694.40" y1="482.91" x2="700.39" y2="482.49" stroke="#3b2b18" stroke-width="0.8" opacity="0.78" />
<line x1="694.66" y1="487.18" x2="700.66" y2="486.86" stroke="#3b2b18" stroke-width="0.8" opacity="0.78" />
<line x1="694.85" y1="491.45" x2="700.85" y2="491.24" stroke="#3b2b18" stroke-width="0.8" opacity="0.78" />
<line x1="694.96" y1="495.72" x2="700.96" y2="495.62" stroke="#3b2b18" stroke-width="0.8" opacity="0.78" />
<line x1="684.00" y1="500.00" x2="701.00" y2="500.00" stroke="#3b2b18" stroke-width="1.7" opacity="0.95" />
<line x1="694.96" y1="504.28" x2="700.96" y2="504.38" stroke="#3b2b18" stroke-width="0.8" opacity="0.78" />
<line x1="694.85" y1="508.55" x2="700.85" y2="508.76" stroke="#3b2b18" stroke-width="0.8" opacity="0.78" />
<line x1="694.66" y1="512.82" x2="700.66" y2="513.14" stroke="#3b2b18" stroke-width="0.8" opacity="0.78" />
<line x1="694.40" y1="517.09" x2="700.39" y2="517.51" stroke="#3b2b18" stroke-width="0.8" opacity="0.78" />
<line x1="689.09" y1="520.92" x2="700.04" y2="521.88" stroke="#3b2b18" stroke-width="1.2" opacity="0.78" />
<line x1="693.66" y1="525.61" x2="699.62" y2="526.24" stroke="#3b2b18" stroke-width="0.8" opacity="0.78" />
<line x1="693.17" y1="529.86" x2="699.13" y2="530.59" stroke="#3b2b18" stroke-width="0.8" opacity="0.78" />
<line x1="692.62" y1="534.10" x2="698.56" y2="534.93" stroke="#3b2b18" stroke-width="0.8" opacity="0.78" />
<line x1="691.98" y1="538.33" x2="697.91" y2="539.27" stroke="#3b2b18" stroke-width="0.8" opacity="0.78" />
<line x1="673.55" y1="539.42" x2="697.19" y2="543.59" stroke="#3b2b18" stroke-width="2.3" opacity="0.95" />
<line x1="690.50" y1="546.75" x2="696.39" y2="547.89" stroke="#3b2b18" stroke-width="0.8" opacity="0.78" />
<line x1="689.65" y1="550.94" x2="695.52" y2="552.19" stroke="#3b2b18" stroke-width="0.8" opacity="0.78" />
<line x1="688.72" y1="555.11" x2="694.57" y2="556.46" stroke="#3b2b18" stroke-width="0.8" opacity="0.78" />
<line x1="687.72" y1="559.27" x2="693.54" y2="560.72" stroke="#3b2b18" stroke-width="0.8" opacity="0.78" />
<line x1="681.82" y1="562.12" x2="692.45" y2="564.96" stroke="#3b2b18" stroke-width="1.2" opacity="0.78" />
<line x1="685.51" y1="567.53" x2="691.28" y2="569.18" stroke="#3b2b18" stroke-width="0.8" opacity="0.78" />
<line x1="684.29" y1="571.63" x2="690.03" y2="573.39" stroke="#3b2b18" stroke-width="0.8" opacity="0.78" />
<line x1="683.01" y1="575.71" x2="688.72" y2="577.56" stroke="#3b2b18" stroke-width="0.8" opacity="0.78" />
<line x1="681.65" y1="579.76" x2="687.33" y2="581.72" stroke="#3b2b18" stroke-width="0.8" opacity="0.78" />
<line x1="669.89" y1="580.03" x2="685.86" y2="585.85" stroke="#3b2b18" stroke-width="1.7" opacity="0.95" />
<line x1="678.73" y1="587.80" x2="684.33" y2="589.95" stroke="#3b2b18" stroke-width="0.8" opacity="0.78" />
<line x1="677.16" y1="591.78" x2="682.72" y2="594.03" stroke="#3b2b18" stroke-width="0.8" opacity="0.78" />
<line x1="675.52" y1="595.73" x2="681.05" y2="598.07" stroke="#3b2b18" stroke-width="0.8" opacity="0.78" />
<line x1="673.82" y1="599.65" x2="679.30" y2="602.09" stroke="#3b2b18" stroke-width="0.8" opacity="0.78" />
<line x1="667.51" y1="601.43" x2="677.48" y2="606.08" stroke="#3b2b18" stroke-width="1.2" opacity="0.78" />
<line x1="670.20" y1="607.40" x2="675.60" y2="610.03" stroke="#3b2b18" stroke-width="0.8" opacity="0.78" />
<line x1="668.30" y1="611.23" x2="673.64" y2="613.95" stroke="#3b2b18" stroke-width="0.8" opacity="0.78" />
<line x1="666.32" y1="615.02" x2="671.62" y2="617.84" stroke="#3b2b18" stroke-width="0.8" opacity="0.78" />
<line x1="664.28" y1="618.78" x2="669.53" y2="621.69" stroke="#3b2b18" stroke-width="0.8" opacity="0.78" />
<line x1="646.59" y1="613.50" x2="667.37" y2="625.50" stroke="#3b2b18" stroke-width="2.3" opacity="0.95" />
<line x1="660.01" y1="626.18" x2="665.15" y2="629.27" stroke="#3b2b18" stroke-width="0.8" opacity="0.78" />
<line x1="657.77" y1="629.83" x2="662.86" y2="633.01" stroke="#3b2b18" stroke-width="0.8" opacity="0.78" />
<line x1="655.47" y1="633.44" x2="660.51" y2="636.70" stroke="#3b2b18" stroke-width="0.8" opacity="0.78" />
<line x1="653.11" y1="637.00" x2="658.09" y2="640.36" stroke="#3b2b18" stroke-width="0.8" opacity="0.78" />
<line x1="646.60" y1="637.66" x2="655.61" y2="643.97" stroke="#3b2b18" stroke-width="1.2" opacity="0.78" />
<line x1="648.21" y1="644.01" x2="653.06" y2="647.53" stroke="#3b2b18" stroke-width="0.8" opacity="0.78" />
<line x1="645.67" y1="647.44" x2="650.46" y2="651.06" stroke="#3b2b18" stroke-width="0.8" opacity="0.78" />
<line x1="643.06" y1="650.84" x2="647.79" y2="654.53" stroke="#3b2b18" stroke-width="0.8" opacity="0.78" />
<line x1="640.40" y1="654.18" x2="645.06" y2="657.96" stroke="#3b2b18" stroke-width="0.8" opacity="0.78" />
<line x1="629.25" y1="650.41" x2="642.28" y2="661.34" stroke="#3b2b18" stroke-width="1.7" opacity="0.95" />
<line x1="634.90" y1="660.73" x2="639.43" y2="664.67" stroke="#3b2b18" stroke-width="0.8" opacity="0.78" />
<line x1="632.07" y1="663.94" x2="636.53" y2="667.95" stroke="#3b2b18" stroke-width="0.8" opacity="0.78" />
<line x1="629.18" y1="667.09" x2="633.57" y2="671.18" stroke="#3b2b18" stroke-width="0.8" opacity="0.78" />
<line x1="626.24" y1="670.19" x2="630.55" y2="674.36" stroke="#3b2b18" stroke-width="0.8" opacity="0.78" />
<line x1="619.71" y1="669.71" x2="627.48" y2="677.48" stroke="#3b2b18" stroke-width="1.2" opacity="0.78" />
<line x1="620.19" y1="676.24" x2="624.36" y2="680.55" stroke="#3b2b18" stroke-width="0.8" opacity="0.78" />
<line x1="617.09" y1="679.18" x2="621.18" y2="683.57" stroke="#3b2b18" stroke-width="0.8" opacity="0.78" />
<line x1="613.94" y1="682.07" x2="617.95" y2="686.53" stroke="#3b2b18" stroke-width="0.8" opacity="0.78" />
<line x1="610.73" y1="684.90" x2="614.67" y2="689.43" stroke="#3b2b18" stroke-width="0.8" opacity="0.78" />
<line x1="595.91" y1="673.89" x2="611.34" y2="692.28" stroke="#3b2b18" stroke-width="2.3" opacity="0.95" />
<line x1="604.18" y1="690.40" x2="607.96" y2="695.06" stroke="#3b2b18" stroke-width="0.8" opacity="0.78" />
<line x1="600.84" y1="693.06" x2="604.53" y2="697.79" stroke="#3b2b18" stroke-width="0.8" opacity="0.78" />
<line x1="597.44" y1="695.67" x2="601.06" y2="700.46" stroke="#3b2b18" stroke-width="0.8" opacity="0.78" />
<line x1="594.01" y1="698.21" x2="597.53" y2="703.06" stroke="#3b2b18" stroke-width="0.8" opacity="0.78" />
<line x1="587.66" y1="696.60" x2="593.97" y2="705.61" stroke="#3b2b18" stroke-width="1.2" opacity="0.78" />
<line x1="587.00" y1="703.11" x2="590.36" y2="708.09" stroke="#3b2b18" stroke-width="0.8" opacity="0.78" />
<line x1="583.44" y1="705.47" x2="586.70" y2="710.51" stroke="#3b2b18" stroke-width="0.8" opacity="0.78" />
<line x1="579.83" y1="707.77" x2="583.01" y2="712.86" stroke="#3b2b18" stroke-width="0.8" opacity="0.78" />
<line x1="576.18" y1="710.01" x2="579.27" y2="715.15" stroke="#3b2b18" stroke-width="0.8" opacity="0.78" />
<line x1="567.00" y1="702.65" x2="575.50" y2="717.37" stroke="#3b2b18" stroke-width="1.7" opacity="0.95" />
<line x1="568.78" y1="714.28" x2="571.69" y2="719.53" stroke="#3b2b18" stroke-width="0.8" opacity="0.78" />
<line x1="565.02" y1="716.32" x2="567.84" y2="721.62" stroke="#3b2b18" stroke-width="0.8" opacity="0.78" />
<line x1="561.23" y1="718.30" x2="563.95" y2="723.64" stroke="#3b2b18" stroke-width="0.8" opacity="0.78" />
<line x1="557.40" y1="720.20" x2="560.03" y2="725.60" stroke="#3b2b18" stroke-width="0.8" opacity="0.78" />
<line x1="551.43" y1="717.51" x2="556.08" y2="727.48" stroke="#3b2b18" stroke-width="1.2" opacity="0.78" />
<line x1="549.65" y1="723.82" x2="552.09" y2="729.30" stroke="#3b2b18" stroke-width="0.8" opacity="0.78" />
<line x1="545.73" y1="725.52" x2="548.07" y2="731.05" stroke="#3b2b18" stroke-width="0.8" opacity="0.78" />
<line x1="541.78" y1="727.16" x2="544.03" y2="732.72" stroke="#3b2b18" stroke-width="0.8" opacity="0.78" />
<line x1="537.80" y1="728.73" x2="539.95" y2="734.33" stroke="#3b2b18" stroke-width="0.8" opacity="0.78" />
<line x1="527.64" y1="713.31" x2="535.85" y2="735.86" stroke="#3b2b18" stroke-width="2.3" opacity="0.95" />
<line x1="529.76" y1="731.65" x2="531.72" y2="737.33" stroke="#3b2b18" stroke-width="0.8" opacity="0.78" />
<line x1="525.71" y1="733.01" x2="527.56" y2="738.72" stroke="#3b2b18" stroke-width="0.8" opacity="0.78" />
<line x1="521.63" y1="734.29" x2="523.39" y2="740.03" stroke="#3b2b18" stroke-width="0.8" opacity="0.78" />
<line x1="517.53" y1="735.51" x2="519.18" y2="741.28" stroke="#3b2b18" stroke-width="0.8" opacity="0.78" />
<line x1="512.12" y1="731.82" x2="514.96" y2="742.45" stroke="#3b2b18" stroke-width="1.2" opacity="0.78" />
<line x1="509.27" y1="737.72" x2="510.72" y2="743.54" stroke="#3b2b18" stroke-width="0.8" opacity="0.78" />
<line x1="505.11" y1="738.72" x2="506.46" y2="744.57" stroke="#3b2b18" stroke-width="0.8" opacity="0.78" />
<line x1="500.94" y1="739.65" x2="502.19" y2="745.52" stroke="#3b2b18" stroke-width="0.8" opacity="0.78" />
<line x1="496.75" y1="740.50" x2="497.89" y2="746.39" stroke="#3b2b18" stroke-width="0.8" opacity="0.78" />
<line x1="490.63" y1="730.45" x2="493.59" y2="747.19" stroke="#3b2b18" stroke-width="1.7" opacity="0.95" />
<line x1="488.33" y1="741.98" x2="489.27" y2="747.91" stroke="#3b2b18" stroke-width="0.8" opacity="0.78" />
<line x1="484.10" y1="742.62" x2="484.93" y2="748.56" stroke="#3b2b18" stroke-width="0.8" opacity="0.78" />
<line x1="479.86" y1="743.17" x2="480.59" y2="749.13" stroke="#3b2b18" stroke-width="0.8" opacity="0.78" />
<line x1="475.61" y1="743.66" x2="476.24" y2="749.62" stroke="#3b2b18" stroke-width="0.8" opacity="0.78" />
<line x1="470.92" y1="739.09" x2="471.88" y2="750.04" stroke="#3b2b18" stroke-width="1.2" opacity="0.78" />
<line x1="467.09" y1="744.40" x2="467.51" y2="750.39" stroke="#3b2b18" stroke-width="0.8" opacity="0.78" />
<line x1="462.82" y1="744.66" x2="463.14" y2="750.66" stroke="#3b2b18" stroke-width="0.8" opacity="0.78" />
<line x1="458.55" y1="744.85" x2="458.76" y2="750.85" stroke="#3b2b18" stroke-width="0.8" opacity="0.78" />
<line x1="454.28" y1="744.96" x2="454.38" y2="750.96" stroke="#3b2b18" stroke-width="0.8" opacity="0.78" />
<line x1="450.00" y1="727.00" x2="450.00" y2="751.00" stroke="#3b2b18" stroke-width="2.3" opacity="0.95" />
<line x1="445.72" y1="744.96" x2="445.62" y2="750.96" stroke="#3b2b18" stroke-width="0.8" opacity="0.78" />
<line x1="441.45" y1="744.85" x2="441.24" y2="750.85" stroke="#3b2b18" stroke-width="0.8" opacity="0.78" />
<line x1="437.18" y1="744.66" x2="436.86" y2="750.66" stroke="#3b2b18" stroke-width="0.8" opacity="0.78" />
<line x1="432.91" y1="744.40" x2="432.49" y2="750.39" stroke="#3b2b18" stroke-width="0.8" opacity="0.78" />
<line x1="429.08" y1="739.09" x2="428.12" y2="750.04" stroke="#3b2b18" stroke-width="1.2" opacity="0.78" />
<line x1="424.39" y1="743.66" x2="423.76" y2="749.62" stroke="#3b2b18" stroke-width="0.8" opacity="0.78" />
<line x1="420.14" y1="743.17" x2="419.41" y2="749.13" stroke="#3b2b18" stroke-width="0.8" opacity="0.78" />
<line x1="415.90" y1="742.62" x2="415.07" y2="748.56" stroke="#3b2b18" stroke-width="0.8" opacity="0.78" />
<line x1="411.67" y1="741.98" x2="410.73" y2="747.91" stroke="#3b2b18" stroke-width="0.8" opacity="0.78" />
<line x1="409.37" y1="730.45" x2="406.41" y2="747.19" stroke="#3b2b18" stroke-width="1.7" opacity="0.95" />
<line x1="403.25" y1="740.50" x2="402.11" y2="746.39" stroke="#3b2b18" stroke-width="0.8" opacity="0.78" />
<line x1="399.06" y1="739.65" x2="397.81" y2="745.52" stroke="#3b2b18" stroke-width="0.8" opacity="0.78" />
<line x1="394.89" y1="738.72" x2="393.54" y2="744.57" stroke="#3b2b18" stroke-width="0.8" opacity="0.78" />
<line x1="390.73" y1="737.72" x2="389.28" y2="743.54" stroke="#3b2b18" stroke-width="0.8" opacity="0.78" />
<line x1="387.88" y1="731.82" x2="385.04" y2="742.45" stroke="#3b2b18" stroke-width="1.2" opacity="0.78" />
<line x1="382.47" y1="735.51" x2="380.82" y2="741.28" stroke="#3b2b18" stroke-width="0.8" opacity="0.78" />
<line x1="378.37" y1="734.29" x2="376.61" y2="740.03" stroke="#3b2b18" stroke-width="0.8" opacity="0.78" />
<line x1="374.29" y1="733.01" x2="372.44" y2="738.72" stroke="#3b2b18" stroke-width="0.8" opacity="0.78" />
<line x1="370.24" y1="731.65" x2="368.28" y2="737.33" stroke="#3b2b18" stroke-width="0.8" opacity="0.78" />
<line x1="372.36" y1="713.31" x2="364.15" y2="735.86" stroke="#3b2b18" stroke-width="2.3" opacity="0.95" />
<line x1="362.20" y1="728.73" x2="360.05" y2="734.33" stroke="#3b2b18" stroke-width="0.8" opacity="0.78" />
<line x1="358.22" y1="727.16" x2="355.97" y2="732.72" stroke="#3b2b18" stroke-width="0.8" opacity="0.78" />
<line x1="354.27" y1="725.52" x2="351.93" y2="731.05" stroke="#3b2b18" stroke-width="0.8" opacity="0.78" />
<line x1="350.35" y1="723.82" x2="347.91" y2="729.30" stroke="#3b2b18" stroke-width="0.8" opacity="0.78" />
<line x1="348.57" y1="717.51" x2="343.92" y2="727.48" stroke="#3b2b18" stroke-width="1.2" opacity="0.78" />
<line x1="342.60" y1="720.20" x2="339.97" y2="725.60" stroke="#3b2b18" stroke-width="0.8" opacity="0.78" />
<line x1="338.77" y1="718.30" x2="336.05" y2="723.64" stroke="#3b2b18" stroke-width="0.8" opacity="0.78" />
<line x1="334.98" y1="716.32" x2="332.16" y2="721.62" stroke="#3b2b18" stroke-width="0.8" opacity="0.78" />
<line x1="331.22" y1="714.28" x2="328.31" y2="719.53" stroke="#3b2b18" stroke-width="0.8" opacity="0.78" />
<line x1="333.00" y1="702.65" x2="324.50" y2="717.37" stroke="#3b2b18" stroke-width="1.7" opacity="0.95" />
<line x1="323.82" y1="710.01" x2="320.73" y2="715.15" stroke="#3b2b18" stroke-width="0.8" opacity="0.78" />
<line x1="320.17" y1="707.77" x2="316.99" y2="712.86" stroke="#3b2b18" stroke-width="0.8" opacity="0.78" />
<line x1="316.56" y1="705.47" x2="313.30" y2="710.51" stroke="#3b2b18" stroke-width="0.8" opacity="0.78" />
<line x1="313.00" y1="703.11" x2="309.64" y2="708.09" stroke="#3b2b18" stroke-width="0.8" opacity="0.78" />
<line x1="312.34" y1="696.60" x2="306.03" y2="705.61" stroke="#3b2b18" stroke-width="1.2" opacity="0.78" />
<line x1="305.99" y1="698.21" x2="302.47" y2="703.06" stroke="#3b2b18" stroke-width="0.8" opacity="0.78" />
<line x1="302.56" y1="695.67" x2="298.94" y2="700.46" stroke="#3b2b18" stroke-width="0.8" opacity="0.78" />
<line x1="299.16" y1="693.06" x2="295.47" y2="697.79" stroke="#3b2b18" stroke-width="0.8" opacity="0.78" />
<line x1="295.82" y1="690.40" x2="292.04" y2="695.06" stroke="#3b2b18" stroke-width="0.8" opacity="0.78" />
<line x1="304.09" y1="673.89" x2="288.66" y2="692.28" stroke="#3b2b18" stroke-width="2.3" opacity="0.95" />
<line x1="289.27" y1="684.90" x2="285.33" y2="689.43" stroke="#3b2b18" stroke-width="0.8" opacity="0.78" />
<line x1="286.06" y1="682.07" x2="282.05" y2="686.53" stroke="#3b2b18" stroke-width="0.8" opacity="0.78" />
<line x1="282.91" y1="679.18" x2="278.82" y2="683.57" stroke="#3b2b18" stroke-width="0.8" opacity="0.78" />
<line x1="279.81" y1="676.24" x2="275.64" y2="680.55" stroke="#3b2b18" stroke-width="0.8" opacity="0.78" />
<line x1="280.29" y1="669.71" x2="272.52" y2="677.48" stroke="#3b2b18" stroke-width="1.2" opacity="0.78" />
<line x1="273.76" y1="670.19" x2="269.45" y2="674.36" stroke="#3b2b18" stroke-width="0.8" opacity="0.78" />
<line x1="270.82" y1="667.09" x2="266.43" y2="671.18" stroke="#3b2b18" stroke-width="0.8" opacity="0.78" />
<line x1="267.93" y1="663.94" x2="263.47" y2="667.95" stroke="#3b2b18" stroke-width="0.8" opacity="0.78" />
<line x1="265.10" y1="660.73" x2="260.57" y2="664.67" stroke="#3b2b18" stroke-width="0.8" opacity="0.78" />
<line x1="270.75" y1="650.41" x2="257.72" y2="661.34" stroke="#3b2b18" stroke-width="1.7" opacity="0.95" />
<line x1="259.60" y1="654.18" x2="254.94" y2="657.96" stroke="#3b2b18" stroke-width="0.8" opacity="0.78" />
<line x1="256.94" y1="650.84" x2="252.21" y2="654.53" stroke="#3b2b18" stroke-width="0.8" opacity="0.78" />
<line x1="254.33" y1="647.44" x2="249.54" y2="651.06" stroke="#3b2b18" stroke-width="0.8" opacity="0.78" />
<line x1="251.79" y1="644.01" x2="246.94" y2="647.53" stroke="#3b2b18" stroke-width="0.8" opacity="0.78" />
<line x1="253.40" y1="637.66" x2="244.39" y2="643.97" stroke="#3b2b18" stroke-width="1.2" opacity="0.78" />
<line x1="246.89" y1="637.00" x2="241.91" y2="640.36" stroke="#3b2b18" stroke-width="0.8" opacity="0.78" />
<line x1="244.53" y1="633.44" x2="239.49" y2="636.70" stroke="#3b2b18" stroke-width="0.8" opacity="0.78" />
<line x1="242.23" y1="629.83" x2="237.14" y2="633.01" stroke="#3b2b18" stroke-width="0.8" opacity="0.78" />
<line x1="239.99" y1="626.18" x2="234.85" y2="629.27" stroke="#3b2b18" stroke-width="0.8" opacity="0.78" />
<line x1="253.41" y1="613.50" x2="232.63" y2="625.50" stroke="#3b2b18" stroke-width="2.3" opacity="0.95" />
<line x1="235.72" y1="618.78" x2="230.47" y2="621.69" stroke="#3b2b18" stroke-width="0.8" opacity="0.78" />
<line x1="233.68" y1="615.02" x2="228.38" y2="617.84" stroke="#3b2b18" stroke-width="0.8" opacity="0.78" />
<line x1="231.70" y1="611.23" x2="226.36" y2="613.95" stroke="#3b2b18" stroke-width="0.8" opacity="0.78" />
<line x1="229.80" y1="607.40" x2="224.40" y2="610.03" stroke="#3b2b18" stroke-width="0.8" opacity="0.78" />
<line x1="232.49" y1="601.43" x2="222.52" y2="606.08" stroke="#3b2b18" stroke-width="1.2" opacity="0.78" />
<line x1="226.18" y1="599.65" x2="220.70" y2="602.09" stroke="#3b2b18" stroke-width="0.8" opacity="0.78" />
<line x1="224.48" y1="595.73" x2="218.95" y2="598.07" stroke="#3b2b18" stroke-width="0.8" opacity="0.78" />
<line x1="222.84" y1="591.78" x2="217.28" y2="594.03" stroke="#3b2b18" stroke-width="0.8" opacity="0.78" />
<line x1="221.27" y1="587.80" x2="215.67" y2="589.95" stroke="#3b2b18" stroke-width="0.8" opacity="0.78" />
<line x1="230.11" y1="580.03" x2="214.14" y2="585.85" stroke="#3b2b18" stroke-width="1.7" opacity="0.95" />
<line x1="218.35" y1="579.76" x2="212.67" y2="581.72" stroke="#3b2b18" stroke-width="0.8" opacity="0.78" />
<line x1="216.99" y1="575.71" x2="211.28" y2="577.56" stroke="#3b2b18" stroke-width="0.8" opacity="0.78" />
<line x1="215.71" y1="571.63" x2="209.97" y2="573.39" stroke="#3b2b18" stroke-width="0.8" opacity="0.78" />
<line x1="214.49" y1="567.53" x2="208.72" y2="569.18" stroke="#3b2b18" stroke-width="0.8" opacity="0.78" />
<line x1="218.18" y1="562.12" x2="207.55" y2="564.96" stroke="#3b2b18" stroke-width="1.2" opacity="0.78" />
<line x1="212.28" y1="559.27" x2="206.46" y2="560.72" stroke="#3b2b18" stroke-width="0.8" opacity="0.78" />
<line x1="211.28" y1="555.11" x2="205.43" y2="556.46" stroke="#3b2b18" stroke-width="0.8" opacity="0.78" />
<line x1="210.35" y1="550.94" x2="204.48" y2="552.19" stroke="#3b2b18" stroke-width="0.8" opacity="0.78" />
<line x1="209.50" y1="546.75" x2="203.61" y2="547.89" stroke="#3b2b18" stroke-width="0.8" opacity="0.78" />
<line x1="226.45" y1="539.42" x2="202.81" y2="543.59" stroke="#3b2b18" stroke-width="2.3" opacity="0.95" />
<line x1="208.02" y1="538.33" x2="202.09" y2="539.27" stroke="#3b2b18" stroke-width="0.8" opacity="0.78" />
<line x1="207.38" y1="534.10" x2="201.44" y2="534.93" stroke="#3b2b18" stroke-width="0.8" opacity="0.78" />
<line x1="206.83" y1="529.86" x2="200.87" y2="530.59" stroke="#3b2b18" stroke-width="0.8" opacity="0.78" />
<line x1="206.34" y1="525.61" x2="200.38" y2="526.24" stroke="#3b2b18" stroke-width="0.8" opacity="0.78" />
<line x1="210.91" y1="520.92" x2="199.96" y2="521.88" stroke="#3b2b18" stroke-width="1.2" opacity="0.78" />
<line x1="205.60" y1="517.09" x2="199.61" y2="517.51" stroke="#3b2b18" stroke-width="0.8" opacity="0.78" />
<line x1="205.34" y1="512.82" x2="199.34" y2="513.14" stroke="#3b2b18" stroke-width="0.8" opacity="0.78" />
<line x1="205.15" y1="508.55" x2="199.15" y2="508.76" stroke="#3b2b18" stroke-width="0.8" opacity="0.78" />
<line x1="205.04" y1="504.28" x2="199.04" y2="504.38" stroke="#3b2b18" stroke-width="0.8" opacity="0.78" />
<line x1="216.00" y1="500.00" x2="199.00" y2="500.00" stroke="#3b2b18" stroke-width="1.7" opacity="0.95" />
<line x1="205.04" y1="495.72" x2="199.04" y2="495.62" stroke="#3b2b18" stroke-width="0.8" opacity="0.78" />
<line x1="205.15" y1="491.45" x2="199.15" y2="491.24" stroke="#3b2b18" stroke-width="0.8" opacity="0.78" />
<line x1="205.34" y1="487.18" x2="199.34" y2="486.86" stroke="#3b2b18" stroke-width="0.8" opacity="0.78" />
<line x1="205.60" y1="482.91" x2="199.61" y2="482.49" stroke="#3b2b18" stroke-width="0.8" opacity="0.78" />
<line x1="210.91" y1="479.08" x2="199.96" y2="478.12" stroke="#3b2b18" stroke-width="1.2" opacity="0.78" />
<line x1="206.34" y1="474.39" x2="200.38" y2="473.76" stroke="#3b2b18" stroke-width="0.8" opacity="0.78" />
<line x1="206.83" y1="470.14" x2="200.87" y2="469.41" stroke="#3b2b18" stroke-width="0.8" opacity="0.78" />
<line x1="207.38" y1="465.90" x2="201.44" y2="465.07" stroke="#3b2b18" stroke-width="0.8" opacity="0.78" />
<line x1="208.02" y1="461.67" x2="202.09" y2="460.73" stroke="#3b2b18" stroke-width="0.8" opacity="0.78" />
<line x1="226.45" y1="460.58" x2="202.81" y2="456.41" stroke="#3b2b18" stroke-width="2.3" opacity="0.95" />
<line x1="209.50" y1="453.25" x2="203.61" y2="452.11" stroke="#3b2b18" stroke-width="0.8" opacity="0.78" />
<line x1="210.35" y1="449.06" x2="204.48" y2="447.81" stroke="#3b2b18" stroke-width="0.8" opacity="0.78" />
<line x1="211.28" y1="444.89" x2="205.43" y2="443.54" stroke="#3b2b18" stroke-width="0.8" opacity="0.78" />
<line x1="212.28" y1="440.73" x2="206.46" y2="439.28" stroke="#3b2b18" stroke-width="0.8" opacity="0.78" />
<line x1="218.18" y1="437.88" x2="207.55" y2="435.04" stroke="#3b2b18" stroke-width="1.2" opacity="0.78" />
<line x1="214.49" y1="432.47" x2="208.72" y2="430.82" stroke="#3b2b18" stroke-width="0.8" opacity="0.78" />
<line x1="215.71" y1="428.37" x2="209.97" y2="426.61" stroke="#3b2b18" stroke-width="0.8" opacity="0.78" />
<line x1="216.99" y1="424.29" x2="211.28" y2="422.44" stroke="#3b2b18" stroke-width="0.8" opacity="0.78" />
<line x1="218.35" y1="420.24" x2="212.67" y2="418.28" stroke="#3b2b18" stroke-width="0.8" opacity="0.78" />
<line x1="230.11" y1="419.97" x2="214.14" y2="414.15" stroke="#3b2b18" stroke-width="1.7" opacity="0.95" />
<line x1="221.27" y1="412.20" x2="215.67" y2="410.05" stroke="#3b2b18" stroke-width="0.8" opacity="0.78" />
<line x1="222.84" y1="408.22" x2="217.28" y2="405.97" stroke="#3b2b18" stroke-width="0.8" opacity="0.78" />
<line x1="224.48" y1="404.27" x2="218.95" y2="401.93" stroke="#3b2b18" stroke-width="0.8" opacity="0.78" />
<line x1="226.18" y1="400.35" x2="220.70" y2="397.91" stroke="#3b2b18" stroke-width="0.8" opacity="0.78" />
<line x1="232.49" y1="398.57" x2="222.52" y2="393.92" stroke="#3b2b18" stroke-width="1.2" opacity="0.78" />
<line x1="229.80" y1="392.60" x2="224.40" y2="389.97" stroke="#3b2b18" stroke-width="0.8" opacity="0.78" />
<line x1="231.70" y1="388.77" x2="226.36" y2="386.05" stroke="#3b2b18" stroke-width="0.8" opacity="0.78" />
<line x1="233.68" y1="384.98" x2="228.38" y2="382.16" stroke="#3b2b18" stroke-width="0.8" opacity="0.78" />
<line x1="235.72" y1="381.22" x2="230.47" y2="378.31" stroke="#3b2b18" stroke-width="0.8" opacity="0.78" />
<line x1="253.41" y1="386.50" x2="232.63" y2="374.50" stroke="#3b2b18" stroke-width="2.3" opacity="0.95" />
<line x1="239.99" y1="373.82" x2="234.85" y2="370.73" stroke="#3b2b18" stroke-width="0.8" opacity="0.78" />
<line x1="242.23" y1="370.17" x2="237.14" y2="366.99" stroke="#3b2b18" stroke-width="0.8" opacity="0.78" />
<line x1="244.53" y1="366.56" x2="239.49" y2="363.30" stroke="#3b2b18" stroke-width="0.8" opacity="0.78" />
<line x1="246.89" y1="363.00" x2="241.91" y2="359.64" stroke="#3b2b18" stroke-width="0.8" opacity="0.78" />
<line x1="253.40" y1="362.34" x2="244.39" y2="356.03" stroke="#3b2b18" stroke-width="1.2" opacity="0.78" />
<line x1="251.79" y1="355.99" x2="246.94" y2="352.47" stroke="#3b2b18" stroke-width="0.8" opacity="0.78" />
<line x1="254.33" y1="352.56" x2="249.54" y2="348.94" stroke="#3b2b18" stroke-width="0.8" opacity="0.78" />
<line x1="256.94" y1="349.16" x2="252.21" y2="345.47" stroke="#3b2b18" stroke-width="0.8" opacity="0.78" />
<line x1="259.60" y1="345.82" x2="254.94" y2="342.04" stroke="#3b2b18" stroke-width="0.8" opacity="0.78" />
<line x1="270.75" y1="349.59" x2="257.72" y2="338.66" stroke="#3b2b18" stroke-width="1.7" opacity="0.95" />
<line x1="265.10" y1="339.27" x2="260.57" y2="335.33" stroke="#3b2b18" stroke-width="0.8" opacity="0.78" />
<line x1="267.93" y1="336.06" x2="263.47" y2="332.05" stroke="#3b2b18" stroke-width="0.8" opacity="0.78" />
<line x1="270.82" y1="332.91" x2="266.43" y2="328.82" stroke="#3b2b18" stroke-width="0.8" opacity="0.78" />
<line x1="273.76" y1="329.81" x2="269.45" y2="325.64" stroke="#3b2b18" stroke-width="0.8" opacity="0.78" />
<line x1="280.29" y1="330.29" x2="272.52" y2="322.52" stroke="#3b2b18" stroke-width="1.2" opacity="0.78" />
<line x1="279.81" y1="323.76" x2="275.64" y2="319.45" stroke="#3b2b18" stroke-width="0.8" opacity="0.78" />
<line x1="282.91" y1="320.82" x2="278.82" y2="316.43" stroke="#3b2b18" stroke-width="0.8" opacity="0.78" />
<line x1="286.06" y1="317.93" x2="282.05" y2="313.47" stroke="#3b2b18" stroke-width="0.8" opacity="0.78" />
<line x1="289.27" y1="315.10" x2="285.33" y2="310.57" stroke="#3b2b18" stroke-width="0.8" opacity="0.78" />
<line x1="304.09" y1="326.11" x2="288.66" y2="307.72" stroke="#3b2b18" stroke-width="2.3" opacity="0.95" />
<line x1="295.82" y1="309.60" x2="292.04" y2="304.94" stroke="#3b2b18" stroke-width="0.8" opacity="0.78" />
<line x1="299.16" y1="306.94" x2="295.47" y2="302.21" stroke="#3b2b18" stroke-width="0.8" opacity="0.78" />
<line x1="302.56" y1="304.33" x2="298.94" y2="299.54" stroke="#3b2b18" stroke-width="0.8" opacity="0.78" />
<line x1="305.99" y1="301.79" x2="302.47" y2="296.94" stroke="#3b2b18" stroke-width="0.8" opacity="0.78" />
<line x1="312.34" y1="303.40" x2="306.03" y2="294.39" stroke="#3b2b18" stroke-width="1.2" opacity="0.78" />
<line x1="313.00" y1="296.89" x2="309.64" y2="291.91" stroke="#3b2b18" stroke-width="0.8" opacity="0.78" />
<line x1="316.56" y1="294.53" x2="313.30" y2="289.49" stroke="#3b2b18" stroke-width="0.8" opacity="0.78" />
<line x1="320.17" y1="292.23" x2="316.99" y2="287.14" stroke="#3b2b18" stroke-width="0.8" opacity="0.78" />
<line x1="323.82" y1="289.99" x2="320.73" y2="284.85" stroke="#3b2b18" stroke-width="0.8" opacity="0.78" />
<line x1="333.00" y1="297.35" x2="324.50" y2="282.63" stroke="#3b2b18" stroke-width="1.7" opacity="0.95" />
<line x1="331.22" y1="285.72" x2="328.31" y2="280.47" stroke="#3b2b18" stroke-width="0.8" opacity="0.78" />
<line x1="334.98" y1="283.68" x2="332.16" y2="278.38" stroke="#3b2b18" stroke-width="0.8" opacity="0.78" />
<line x1="338.77" y1="281.70" x2="336.05" y2="276.36" stroke="#3b2b18" stroke-width="0.8" opacity="0.78" />
<line x1="342.60" y1="279.80" x2="339.97" y2="274.40" stroke="#3b2b18" stroke-width="0.8" opacity="0.78" />
<line x1="348.57" y1="282.49" x2="343.92" y2="272.52" stroke="#3b2b18" stroke-width="1.2" opacity="0.78" />
<line x1="350.35" y1="276.18" x2="347.91" y2="270.70" stroke="#3b2b18" stroke-width="0.8" opacity="0.78" />
<line x1="354.27" y1="274.48" x2="351.93" y2="268.95" stroke="#3b2b18" stroke-width="0.8" opacity="0.78" />
<line x1="358.22" y1="272.84" x2="355.97" y2="267.28" stroke="#3b2b18" stroke-width="0.8" opacity="0.78" />
<line x1="362.20" y1="271.27" x2="360.05" y2="265.67" stroke="#3b2b18" stroke-width="0.8" opacity="0.78" />
<line x1="372.36" y1="286.69" x2="364.15" y2="264.14" stroke="#3b2b18" stroke-width="2.3" opacity="0.95" />
<line x1="370.24" y1="268.35" x2="368.28" y2="262.67" stroke="#3b2b18" stroke-width="0.8" opacity="0.78" />
<line x1="374.29" y1="266.99" x2="372.44" y2="261.28" stroke="#3b2b18" stroke-width="0.8" opacity="0.78" />
<line x1="378.37" y1="265.71" x2="376.61" y2="259.97" stroke="#3b2b18" stroke-width="0.8" opacity="0.78" />
<line x1="382.47" y1="264.49" x2="380.82" y2="258.72" stroke="#3b2b18" stroke-width="0.8" opacity="0.78" />
<line x1="387.88" y1="268.18" x2="385.04" y2="257.55" stroke="#3b2b18" stroke-width="1.2" opacity="0.78" />
<line x1="390.73" y1="262.28" x2="389.28" y2="256.46" stroke="#3b2b18" stroke-width="0.8" opacity="0.78" />
<line x1="394.89" y1="261.28" x2="393.54" y2="255.43" stroke="#3b2b18" stroke-width="0.8" opacity="0.78" />
<line x1="399.06" y1="260.35" x2="397.81" y2="254.48" stroke="#3b2b18" stroke-width="0.8" opacity="0.78" />
<line x1="403.25" y1="259.50" x2="402.11" y2="253.61" stroke="#3b2b18" stroke-width="0.8" opacity="0.78" />
<line x1="409.37" y1="269.55" x2="406.41" y2="252.81" stroke="#3b2b18" stroke-width="1.7" opacity="0.95" />
<line x1="411.67" y1="258.02" x2="410.73" y2="252.09" stroke="#3b2b18" stroke-width="0.8" opacity="0.78" />
<line x1="415.90" y1="257.38" x2="415.07" y2="251.44" stroke="#3b2b18" stroke-width="0.8" opacity="0.78" />
<line x1="420.14" y1="256.83" x2="419.41" y2="250.87" stroke="#3b2b18" stroke-width="0.8" opacity="0.78" />
<line x1="424.39" y1="256.34" x2="423.76" y2="250.38" stroke="#3b2b18" stroke-width="0.8" opacity="0.78" />
<line x1="429.08" y1="260.91" x2="428.12" y2="249.96" stroke="#3b2b18" stroke-width="1.2" opacity="0.78" />
<line x1="432.91" y1="255.60" x2="432.49" y2="249.61" stroke="#3b2b18" stroke-width="0.8" opacity="0.78" />
<line x1="437.18" y1="255.34" x2="436.86" y2="249.34" stroke="#3b2b18" stroke-width="0.8" opacity="0.78" />
<line x1="441.45" y1="255.15" x2="441.24" y2="249.15" stroke="#3b2b18" stroke-width="0.8" opacity="0.78" />
<line x1="445.72" y1="255.04" x2="445.62" y2="249.04" stroke="#3b2b18" stroke-width="0.8" opacity="0.78" />


    <text x="450.00" y="276.00" font-size="13" font-family="Georgia, 'Times New Roman', serif" font-weight="700" fill="#3b2b18" text-anchor="middle" dominant-baseline="middle" transform="rotate(0 450.00 276.00)">360</text>
<text x="526.61" y="289.51" font-size="13" font-family="Georgia, 'Times New Roman', serif" font-weight="700" fill="#3b2b18" text-anchor="middle" dominant-baseline="middle" transform="rotate(20 526.61 289.51)">20</text>
<text x="593.98" y="328.41" font-size="13" font-family="Georgia, 'Times New Roman', serif" font-weight="700" fill="#3b2b18" text-anchor="middle" dominant-baseline="middle" transform="rotate(40 593.98 328.41)">40</text>
<text x="643.99" y="388.00" font-size="13" font-family="Georgia, 'Times New Roman', serif" font-weight="700" fill="#3b2b18" text-anchor="middle" dominant-baseline="middle" transform="rotate(60 643.99 388.00)">60</text>
<text x="670.60" y="461.10" font-size="13" font-family="Georgia, 'Times New Roman', serif" font-weight="700" fill="#3b2b18" text-anchor="middle" dominant-baseline="middle" transform="rotate(80 670.60 461.10)">80</text>
<text x="670.60" y="538.90" font-size="13" font-family="Georgia, 'Times New Roman', serif" font-weight="700" fill="#3b2b18" text-anchor="middle" dominant-baseline="middle" transform="rotate(100 670.60 538.90)">100</text>
<text x="643.99" y="612.00" font-size="13" font-family="Georgia, 'Times New Roman', serif" font-weight="700" fill="#3b2b18" text-anchor="middle" dominant-baseline="middle" transform="rotate(120 643.99 612.00)">120</text>
<text x="593.98" y="671.59" font-size="13" font-family="Georgia, 'Times New Roman', serif" font-weight="700" fill="#3b2b18" text-anchor="middle" dominant-baseline="middle" transform="rotate(140 593.98 671.59)">140</text>
<text x="526.61" y="710.49" font-size="13" font-family="Georgia, 'Times New Roman', serif" font-weight="700" fill="#3b2b18" text-anchor="middle" dominant-baseline="middle" transform="rotate(160 526.61 710.49)">160</text>
<text x="450.00" y="724.00" font-size="13" font-family="Georgia, 'Times New Roman', serif" font-weight="700" fill="#3b2b18" text-anchor="middle" dominant-baseline="middle" transform="rotate(180 450.00 724.00)">180</text>
<text x="373.39" y="710.49" font-size="13" font-family="Georgia, 'Times New Roman', serif" font-weight="700" fill="#3b2b18" text-anchor="middle" dominant-baseline="middle" transform="rotate(200 373.39 710.49)">200</text>
<text x="306.02" y="671.59" font-size="13" font-family="Georgia, 'Times New Roman', serif" font-weight="700" fill="#3b2b18" text-anchor="middle" dominant-baseline="middle" transform="rotate(220 306.02 671.59)">220</text>
<text x="256.01" y="612.00" font-size="13" font-family="Georgia, 'Times New Roman', serif" font-weight="700" fill="#3b2b18" text-anchor="middle" dominant-baseline="middle" transform="rotate(240 256.01 612.00)">240</text>
<text x="229.40" y="538.90" font-size="13" font-family="Georgia, 'Times New Roman', serif" font-weight="700" fill="#3b2b18" text-anchor="middle" dominant-baseline="middle" transform="rotate(260 229.40 538.90)">260</text>
<text x="229.40" y="461.10" font-size="13" font-family="Georgia, 'Times New Roman', serif" font-weight="700" fill="#3b2b18" text-anchor="middle" dominant-baseline="middle" transform="rotate(280 229.40 461.10)">280</text>
<text x="256.01" y="388.00" font-size="13" font-family="Georgia, 'Times New Roman', serif" font-weight="700" fill="#3b2b18" text-anchor="middle" dominant-baseline="middle" transform="rotate(300 256.01 388.00)">300</text>
<text x="306.02" y="328.41" font-size="13" font-family="Georgia, 'Times New Roman', serif" font-weight="700" fill="#3b2b18" text-anchor="middle" dominant-baseline="middle" transform="rotate(320 306.02 328.41)">320</text>
<text x="373.39" y="289.51" font-size="13" font-family="Georgia, 'Times New Roman', serif" font-weight="700" fill="#3b2b18" text-anchor="middle" dominant-baseline="middle" transform="rotate(340 373.39 289.51)">340</text>


    <g>
      <g transform="rotate(0 450 500)" opacity="0.38"><polygon points="450,380 439,500 450,514 461,500" fill="#3b2b18"/></g>
      <g transform="rotate(90 450 500)" opacity="0.38"><polygon points="450,380 439,500 450,514 461,500" fill="#3b2b18"/></g>
      <g transform="rotate(180 450 500)" opacity="0.38"><polygon points="450,380 439,500 450,514 461,500" fill="#3b2b18"/></g>
      <g transform="rotate(270 450 500)" opacity="0.38"><polygon points="450,380 439,500 450,514 461,500" fill="#3b2b18"/></g>

      <g transform="rotate(45 450 500)" opacity="0.24"><polygon points="450,406 441,500 450,514 459,500" fill="#3b2b18"/></g>
      <g transform="rotate(135 450 500)" opacity="0.24"><polygon points="450,406 441,500 450,514 459,500" fill="#3b2b18"/></g>
      <g transform="rotate(225 450 500)" opacity="0.24"><polygon points="450,406 441,500 450,514 459,500" fill="#3b2b18"/></g>
      <g transform="rotate(315 450 500)" opacity="0.24"><polygon points="450,406 441,500 450,514 459,500" fill="#3b2b18"/></g>
    </g>

    <g fill="#3b2b18" font-family="Georgia, 'Times New Roman', serif" font-weight="700" text-anchor="middle" dominant-baseline="middle">
      <text x="450" y="350" font-size="68">P</text>
      <text x="600" y="500" font-size="68">I</text>
      <text x="450" y="650" font-size="68">E</text>
      <text x="300" y="500" font-size="68">L</text>
    </g>

    <g fill="#3b2b18" stroke="#f4ecd2" stroke-width="2.2" paint-order="stroke" font-family="Georgia, 'Times New Roman', serif" font-weight="700" font-size="21" letter-spacing="0.2" text-anchor="middle">
      <text><textPath href="#arcNE" startOffset="50%" text-anchor="middle">KOILLINEN</textPath></text>
      <text><textPath href="#arcSE" startOffset="50%" text-anchor="middle">KAAKKO</textPath></text>
      <text><textPath href="#arcSW" startOffset="50%" text-anchor="middle">LOUNAS</textPath></text>
      <text><textPath href="#arcNW" startOffset="50%" text-anchor="middle">LUODE</textPath></text>
    </g>

    <g transform="rotate(-18 450 500)">
      <polygon points="450,242 434,500 466,500" fill="url(#northGrad)" stroke="#8b692f" stroke-width="1.1" />
      <polygon points="450,766 434,500 466,500" fill="url(#southGrad)" stroke="#223350" stroke-width="1.1" />
      <polygon points="450,292 444,500 456,500" fill="#f6e0ac" opacity="0.72" />
    </g>

    <circle cx="450" cy="500" r="18" fill="url(#hubGrad)" stroke="#7b5319" stroke-width="2" />
    <circle cx="450" cy="500" r="7" fill="#f2ddb0" opacity="0.9" />
  </g>
</svg>
